<svg width="94" height="66" viewBox="0 0 94 66" fill="none" xmlns="http://www.w3.org/2000/svg">
<path d="M56.6683 34.2073L56.6382 21.5992L56.5939 8.98895L55.9912 8.58365C55.6777 8.36574 53.2004 7.10842 50.5141 5.78791L45.6237 3.36042V1.12906C45.6237 -0.191455 45.1616 0.0395235 45.1455 1.14649L45.1013 3.16867L40.3254 5.57654C37.6994 6.91449 35.2501 8.12823 34.8784 8.28512C33.5644 8.88436 33.6829 7.52898 33.6829 21.669V34.2073H56.6683ZM52.021 33.1178H50.8717V24.6412H52.021V33.1178ZM50.8717 13.7916H52.021V17.69H50.8717V13.7916ZM50.7793 19.0497H52.021V22.9481H50.7793V19.0497ZM41.0829 19.1173C41.1813 11.0656 41.1813 11.0547 42.0995 9.79303C42.46 9.37753 42.8885 9.03836 43.3633 8.79284C44.1168 8.40279 44.3961 8.35703 45.477 8.40279C46.5117 8.43766 46.8392 8.53789 47.5284 8.96281C48.0318 9.30635 48.4664 9.75616 48.8063 10.2855C49.2483 11.0307 49.2985 11.2683 49.409 13.3362C49.5738 16.0666 49.5899 28.7466 49.4412 31.3745L49.3427 33.2899H41.2315L41.117 29.932C41.0507 28.1016 41.0346 23.2357 41.0829 19.1173ZM38.2057 13.7938H39.5177V17.6922H38.2057V13.7938ZM38.1856 19.0497H39.4976V22.9481H38.1856V19.0497ZM38.1856 24.188H39.4976V32.9391H38.1856V24.188Z" fill="#00194F"/>
<path d="M85.0263 14.3082L84.9821 15.5938L84.9379 16.9013L71.5787 13.9464C64.235 12.3099 58.0707 10.9393 57.8919 10.8957L57.5483 10.8064V34.1813H86.3604V14.3082H85.0263ZM68.9807 20.3333H69.9853V23.761H68.9807V20.3333ZM68.9807 24.9529H69.9853V28.3828H68.9807V24.9529ZM59.5375 19.6229H60.5421V22.4862H59.5375V19.6229ZM60.5421 33.0786H59.5375L59.4953 31.5272C59.4677 30.9407 59.4819 30.3528 59.5375 29.7686C59.5817 29.6335 59.7826 29.5747 60.0719 29.6052L60.5481 29.6488L60.5421 33.0786ZM60.6144 28.3828H59.4611V25.9531C59.4611 24.6108 59.5033 23.4624 59.5616 23.4188C59.7421 23.3301 59.9409 23.294 60.1382 23.3142H60.6144V28.3828ZM67.6466 33.0481C67.4738 33.107 66.0393 33.1527 64.46 33.1527H61.6069L61.6491 26.8465C61.6933 20.7451 61.7074 20.5403 62.0108 19.9607C62.6015 18.8123 63.4655 18.261 64.6911 18.2457C65.1551 18.2465 65.6166 18.3199 66.0614 18.4636C66.7196 18.7381 67.2594 19.2698 67.5743 19.9541C67.8777 20.5338 67.8918 20.7429 67.936 26.7506L67.9942 32.9523L67.6466 33.0481ZM68.9727 33.1527V29.5595L69.4489 29.6052L69.911 29.6488L69.9532 31.3921L69.9974 33.1506L68.9727 33.1527ZM74.3092 33.1527H73.3046V31.4705C73.3046 30.5313 73.3488 29.7272 73.405 29.6815C73.5618 29.5971 73.7369 29.561 73.9113 29.5769H74.3132L74.3092 33.1527ZM74.3092 28.3828H73.3046V24.9529H74.3092V28.3828ZM80.2203 33.1527L77.7389 33.1222L75.2455 33.0786L75.2013 28.3828C75.1731 25.4149 75.2173 23.4929 75.3178 23.153C75.4149 22.7865 75.5871 22.4485 75.8216 22.1644C76.0561 21.8803 76.3468 21.6573 76.672 21.5122C77.0243 21.3264 77.4124 21.2351 77.804 21.2457C78.1956 21.2563 78.579 21.3686 78.9223 21.5732C79.3325 21.7885 79.6704 22.1374 79.8887 22.5712C80.2203 23.2118 80.2203 23.2859 80.2203 28.191V33.1527ZM81.9502 33.0024H80.9456V29.7272H81.9502V33.0024ZM81.9502 28.3828H80.9456V24.9529H81.9502V28.3828Z" fill="#00194F"/>
<path d="M32.7286 11.3359C32.6985 11.3555 27.0566 12.6042 20.1751 14.1339C14.4026 15.4152 9.49815 16.5308 8.03746 16.8686C7.75215 16.9383 7.59945 16.9754 7.59342 16.9819C7.56329 17.0342 7.57936 20.9042 7.63964 25.6176L7.72804 34.1813H32.7588V22.7543C32.7588 16.4655 32.7427 11.3359 32.7286 11.3359ZM10.3882 32.9959H9.38363V29.7273H10.3882V32.9959ZM10.3882 28.3762H9.38363V24.9529H10.3882V28.3762ZM16.1265 28.3762L16.0823 33.0721L13.5889 33.1157L11.1075 33.1462V28.1888C11.1075 23.2838 11.1075 23.2097 11.439 22.569C11.6574 22.1352 11.9953 21.7863 12.4055 21.571C12.7487 21.3664 13.1322 21.2541 13.5238 21.2435C13.9153 21.2329 14.3035 21.3243 14.6558 21.51C14.9809 21.6551 15.2716 21.8781 15.5062 22.1622C15.7407 22.4464 15.9129 22.7843 16.01 23.1508C16.1105 23.493 16.1547 25.4149 16.1265 28.3828V28.3762ZM18.0293 33.1462H17.0247V29.5747H17.4265C17.6009 29.5588 17.776 29.595 17.9328 29.6793C17.9891 29.7229 18.0333 30.5292 18.0333 31.4683L18.0293 33.1462ZM18.0293 28.3762H17.0247V24.6435H18.0293V28.3762ZM30.7676 19.6164H31.7722V22.3359H30.7676V19.6164ZM22.3531 33.1462H21.3304L21.3746 31.3877L21.4168 29.6445L21.8789 29.6009L22.3531 29.5551V33.1462ZM22.3531 28.3762H21.3485V24.9529H22.3531V28.3762ZM22.3531 23.7544H21.3485V20.3333H22.3531V23.7544ZM26.8658 33.1462C25.2946 33.1462 23.8519 33.1005 23.6812 33.0416L23.3336 32.9523L23.3918 26.7507C23.436 20.743 23.4501 20.536 23.7535 19.9541C24.0684 19.2698 24.6082 18.7381 25.2664 18.4637C25.7111 18.3199 26.1727 18.2465 26.6367 18.2458C27.8623 18.261 28.7263 18.8123 29.317 19.9607C29.6204 20.5425 29.6344 20.7343 29.6787 26.8465L29.7208 33.1528L26.8658 33.1462ZM31.8406 31.5206L31.7984 33.0721H30.7938V29.6488L31.2699 29.6052C31.5593 29.5747 31.7602 29.6336 31.8044 29.7687C31.858 30.353 31.8701 30.9409 31.8406 31.5272V31.5206ZM31.8687 28.3762H30.7154V23.3143H31.1916C31.3889 23.294 31.5877 23.3301 31.7682 23.4189C31.8265 23.4624 31.8687 24.6108 31.8687 25.9531V28.3762Z" fill="#00194F"/>
<path d="M6.84399 24.2447V34.1812H8.03746V14.3081H6.84399V24.2447Z" fill="#00194F"/>
<path d="M91.5582 35.1597H1.14783V39.8512H91.5582V35.1597Z" fill="#00194F"/>
<path d="M29.7516 41.314H34.7076C38.5592 41.314 40.485 43.1595 40.485 46.8506C40.485 48.5026 39.9846 49.7817 38.984 50.688C37.9833 51.5848 36.5673 52.0332 34.7359 52.0332H33.6173V59H29.7516V41.314ZM33.5748 49.2578H34.3394C35.0191 49.2578 35.5431 49.0407 35.9112 48.6064C36.2888 48.1722 36.4776 47.5586 36.4776 46.7656C36.4776 45.0192 35.8027 44.146 34.4527 44.146H33.5748V49.2578ZM52.1801 44.7549H47.7055V48.3799H51.5429V51.665H47.7055V59H43.9106V41.314H52.1801V44.7549ZM64.739 59H55.9173V41.314H64.1868V44.7266H59.7122V48.3232H63.5496V51.6084H59.7122V55.5166H64.739V59Z" fill="#00194F"/>
<path d="M29.7516 41.314V40.814H29.2516V41.314H29.7516ZM38.984 50.688L39.3177 51.0603L39.3196 51.0586L38.984 50.688ZM33.6173 52.0332V51.5332H33.1173V52.0332H33.6173ZM33.6173 59V59.5H34.1173V59H33.6173ZM29.7516 59H29.2516V59.5H29.7516V59ZM33.5748 49.2578H33.0748V49.7578H33.5748V49.2578ZM35.9112 48.6064L35.5339 48.2783L35.5298 48.2831L35.9112 48.6064ZM33.5748 44.146V43.646H33.0748V44.146H33.5748ZM29.7516 41.814H34.7076V40.814H29.7516V41.814ZM34.7076 41.814C36.5615 41.814 37.8592 42.2585 38.6947 43.0591C39.5262 43.856 39.985 45.0877 39.985 46.8506H40.985C40.985 44.9224 40.4809 43.3858 39.3866 42.3371C38.2963 41.2922 36.7053 40.814 34.7076 40.814V41.814ZM39.985 46.8506C39.985 48.3955 39.5214 49.5266 38.6483 50.3174L39.3196 51.0586C40.4478 50.0368 40.985 48.6097 40.985 46.8506H39.985ZM38.6503 50.3156C37.7701 51.1045 36.4892 51.5332 34.7359 51.5332V52.5332C36.6454 52.5332 38.1965 52.0651 39.3177 51.0603L38.6503 50.3156ZM34.7359 51.5332H33.6173V52.5332H34.7359V51.5332ZM33.1173 52.0332V59H34.1173V52.0332H33.1173ZM33.6173 58.5H29.7516V59.5H33.6173V58.5ZM30.2516 59V41.314H29.2516V59H30.2516ZM33.5748 49.7578H34.3394V48.7578H33.5748V49.7578ZM34.3394 49.7578C35.1347 49.7578 35.8109 49.498 36.2926 48.9298L35.5298 48.2831C35.2753 48.5834 34.9036 48.7578 34.3394 48.7578V49.7578ZM36.2885 48.9345C36.7708 48.38 36.9776 47.6336 36.9776 46.7656H35.9776C35.9776 47.4836 35.8069 47.9644 35.5339 48.2784L36.2885 48.9345ZM36.9776 46.7656C36.9776 45.8419 36.8015 45.0573 36.367 44.4951C35.9136 43.9086 35.2441 43.646 34.4527 43.646V44.646C35.0113 44.646 35.3542 44.82 35.5758 45.1067C35.8163 45.4178 35.9776 45.9429 35.9776 46.7656H36.9776ZM34.4527 43.646H33.5748V44.646H34.4527V43.646ZM33.0748 44.146V49.2578H34.0748V44.146H33.0748ZM52.1801 44.7549V45.2549H52.6801V44.7549H52.1801ZM47.7055 44.7549V44.2549H47.2055V44.7549H47.7055ZM47.7055 48.3799H47.2055V48.8799H47.7055V48.3799ZM51.5429 48.3799H52.0429V47.8799H51.5429V48.3799ZM51.5429 51.665V52.165H52.0429V51.665H51.5429ZM47.7055 51.665V51.165H47.2055V51.665H47.7055ZM47.7055 59V59.5H48.2055V59H47.7055ZM43.9106 59H43.4106V59.5H43.9106V59ZM43.9106 41.314V40.814H43.4106V41.314H43.9106ZM52.1801 41.314H52.6801V40.814H52.1801V41.314ZM52.1801 44.2549H47.7055V45.2549H52.1801V44.2549ZM47.2055 44.7549V48.3799H48.2055V44.7549H47.2055ZM47.7055 48.8799H51.5429V47.8799H47.7055V48.8799ZM51.0429 48.3799V51.665H52.0429V48.3799H51.0429ZM51.5429 51.165H47.7055V52.165H51.5429V51.165ZM47.2055 51.665V59H48.2055V51.665H47.2055ZM47.7055 58.5H43.9106V59.5H47.7055V58.5ZM44.4106 59V41.314H43.4106V59H44.4106ZM43.9106 41.814H52.1801V40.814H43.9106V41.814ZM51.6801 41.314V44.7549H52.6801V41.314H51.6801ZM64.739 59V59.5H65.239V59H64.739ZM55.9173 59H55.4173V59.5H55.9173V59ZM55.9173 41.314V40.814H55.4173V41.314H55.9173ZM64.1868 41.314H64.6868V40.814H64.1868V41.314ZM64.1868 44.7266V45.2266H64.6868V44.7266H64.1868ZM59.7122 44.7266V44.2266H59.2122V44.7266H59.7122ZM59.7122 48.3232H59.2122V48.8232H59.7122V48.3232ZM63.5496 48.3232H64.0496V47.8232H63.5496V48.3232ZM63.5496 51.6084V52.1084H64.0496V51.6084H63.5496ZM59.7122 51.6084V51.1084H59.2122V51.6084H59.7122ZM59.7122 55.5166H59.2122V56.0166H59.7122V55.5166ZM64.739 55.5166H65.239V55.0166H64.739V55.5166ZM64.739 58.5H55.9173V59.5H64.739V58.5ZM56.4173 59V41.314H55.4173V59H56.4173ZM55.9173 41.814H64.1868V40.814H55.9173V41.814ZM63.6868 41.314V44.7266H64.6868V41.314H63.6868ZM64.1868 44.2266H59.7122V45.2266H64.1868V44.2266ZM59.2122 44.7266V48.3232H60.2122V44.7266H59.2122ZM59.7122 48.8232H63.5496V47.8232H59.7122V48.8232ZM63.0496 48.3232V51.6084H64.0496V48.3232H63.0496ZM63.5496 51.1084H59.7122V52.1084H63.5496V51.1084ZM59.2122 51.6084V55.5166H60.2122V51.6084H59.2122ZM59.7122 56.0166H64.739V55.0166H59.7122V56.0166ZM64.239 55.5166V59H65.239V55.5166H64.239Z" fill="#00194F"/>
<path d="M90.6873 34.0548V27.8357" stroke="#00194F" stroke-miterlimit="10"/>
<path d="M87.512 34.0548V18.6597" stroke="#00194F" stroke-miterlimit="10"/>
<path d="M90.6873 27.8357C91.0291 27.8357 91.3062 27.5352 91.3062 27.1646C91.3062 26.7939 91.0291 26.4934 90.6873 26.4934C90.3455 26.4934 90.0685 26.7939 90.0685 27.1646C90.0685 27.5352 90.3455 27.8357 90.6873 27.8357Z" stroke="#00194F" stroke-width="2" stroke-miterlimit="10"/>
<path d="M89.1121 24.7696L92.6503 20.4529" stroke="#00194F" stroke-miterlimit="10"/>
<path d="M92.632 20.6907V16.4502" stroke="#00194F" stroke-miterlimit="10"/>
<path d="M89.2306 34.0549V24.7808" stroke="#00194F" stroke-miterlimit="10"/>
<path d="M2.05994 34.0548V27.8357" stroke="#00194F" stroke-miterlimit="10"/>
<path d="M5.6886 34.0548V18.6597" stroke="#00194F" stroke-miterlimit="10"/>
<path d="M2.05988 27.8357C2.40165 27.8357 2.67871 27.5352 2.67871 27.1646C2.67871 26.7939 2.40165 26.4934 2.05988 26.4934C1.7181 26.4934 1.44104 26.7939 1.44104 27.1646C1.44104 27.5352 1.7181 27.8357 2.05988 27.8357Z" stroke="#00194F" stroke-miterlimit="10"/>
<path d="M4.20472 24.8897L0.666504 20.573" stroke="#00194F" stroke-miterlimit="10"/>
<path d="M0.734863 20.6907V16.4502" stroke="#00194F" stroke-miterlimit="10"/>
<path d="M4.15662 34.0549V24.7808" stroke="#00194F" stroke-miterlimit="10"/>
</svg>
